<svg width="36" height="36" viewBox="0 0 36 36" fill="none" xmlns="http://www.w3.org/2000/svg">
<g id="calendar_today_24px">
<path id="icon/action/calendar_today_24px" fill-rule="evenodd" clip-rule="evenodd" d="M28.5 4.5H30C31.65 4.5 33 5.85 33 7.5V31.5C33 33.15 31.65 34.5 30 34.5H6C4.35 34.5 3 33.15 3 31.5V7.5C3 5.85 4.35 4.5 6 4.5H7.5V3C7.5 2.175 8.175 1.5 9 1.5C9.825 1.5 10.5 2.175 10.5 3V4.5H25.5V3C25.5 2.175 26.175 1.5 27 1.5C27.825 1.5 28.5 2.175 28.5 3V4.5ZM7.5 31.5H28.5C29.325 31.5 30 30.825 30 30V12H6V30C6 30.825 6.675 31.5 7.5 31.5Z" fill="#021E72"/>
</g>
</svg>
