<svg width="36" height="36" viewBox="0 0 36 36" fill="none" xmlns="http://www.w3.org/2000/svg">
<g id="copy_24px">
<path id="icon/content/copy_24px" fill-rule="evenodd" clip-rule="evenodd" d="M23.25 1.5H6.75C5.1 1.5 3.75 2.85 3.75 4.5V24C3.75 24.825 4.425 25.5 5.25 25.5C6.075 25.5 6.75 24.825 6.75 24V6C6.75 5.175 7.425 4.5 8.25 4.5H23.25C24.075 4.5 24.75 3.825 24.75 3C24.75 2.175 24.075 1.5 23.25 1.5ZM29.25 7.5H12.75C11.1 7.5 9.75 8.85 9.75 10.5V31.5C9.75 33.15 11.1 34.5 12.75 34.5H29.25C30.9 34.5 32.25 33.15 32.25 31.5V10.5C32.25 8.85 30.9 7.5 29.25 7.5ZM14.25 31.5H27.75C28.575 31.5 29.25 30.825 29.25 30V12C29.25 11.175 28.575 10.5 27.75 10.5H14.25C13.425 10.5 12.75 11.175 12.75 12V30C12.75 30.825 13.425 31.5 14.25 31.5Z" fill="#021E72"/>
</g>
</svg>
