<svg width="36" height="36" viewBox="0 0 36 36" fill="none" xmlns="http://www.w3.org/2000/svg">
<g id="domain_24px">
<path id="icon/social/domain_24px" fill-rule="evenodd" clip-rule="evenodd" d="M18 7.5V10.5H30C31.65 10.5 33 11.85 33 13.5V28.5C33 30.15 31.65 31.5 30 31.5H6C4.35 31.5 3 30.15 3 28.5V7.5C3 5.85 4.35 4.5 6 4.5H15C16.65 4.5 18 5.85 18 7.5ZM6 28.5H9V25.5H6V28.5ZM9 22.5H6V19.5H9V22.5ZM6 16.5H9V13.5H6V16.5ZM9 10.5H6V7.5H9V10.5ZM12 28.5H15V25.5H12V28.5ZM15 22.5H12V19.5H15V22.5ZM12 16.5H15V13.5H12V16.5ZM15 10.5H12V7.5H15V10.5ZM18 28.5H28.5C29.325 28.5 30 27.825 30 27V15C30 14.175 29.325 13.5 28.5 13.5H18V16.5H21V19.5H18V22.5H21V25.5H18V28.5ZM27 16.5H24V19.5H27V16.5ZM24 22.5H27V25.5H24V22.5Z" fill="#021E72"/>
</g>
</svg>
