<svg width="372" height="101" viewBox="0 0 372 101" fill="none" xmlns="http://www.w3.org/2000/svg">
<path d="M67.981 4.41875L65.3274 21.7781L33.7378 21.5256L30.3893 45.0081L57.43 44.6294L55.1556 62.9988L27.8621 62.5569L22.3655 101H0L13.8363 4.41875H67.981Z" fill="black"/>
<path d="M99.8234 34.1506L90.536 101H67.981L77.142 34.1506H99.8234ZM80.5537 12.8775C80.5537 10.5629 81.1012 8.41667 82.1963 6.43875C83.3336 4.46083 84.913 2.90375 86.9348 1.7675C88.9565 0.589167 91.252 0 93.8213 0C96.0116 0 97.9491 0.462917 99.6338 1.38875C101.319 2.31458 102.624 3.55604 103.551 5.11313C104.52 6.67021 105.004 8.37458 105.004 10.2263C105.004 12.6671 104.478 14.8765 103.425 16.8544C102.372 18.7902 100.813 20.3473 98.7493 21.5256C96.6855 22.6619 94.1794 23.23 91.231 23.23C89.3777 23.23 87.6298 22.7671 85.9871 21.8413C84.3444 20.9154 83.0177 19.674 82.0068 18.1169C81.038 16.5177 80.5537 14.7713 80.5537 12.8775Z" fill="black"/>
<path d="M143.417 4.41875L165.909 54.4137L170.9 70.8262L171.721 54.4137L177.85 4.41875H199.457L185.621 101H166.857L144.87 48.4169L138.615 31.0575L138.805 48.4169L131.539 101H110.185L124.021 4.41875H143.417Z" fill="black"/>
<path d="M238.186 4.41875L260.678 54.4137L265.669 70.8262L266.491 54.4137L272.619 4.41875H294.226L280.39 101H261.626L239.639 48.4169L233.385 31.0575L233.574 48.4169L226.308 101H204.954L218.79 4.41875H238.186Z" fill="black"/>
<path d="M330.238 59.2744L322.404 59.7163H306.673L308.884 43.1144H324.616L332.007 43.8088L332.576 35.0344L334.471 17.4225H351.656L350.014 35.0344L348.434 43.7456L354.626 43.1144H372L369.789 59.7163H352.478L346.349 59.2744L345.97 67.7962L343.822 85.2188H326.574L328.659 67.7962L330.238 59.2744Z" fill="black"/>
</svg>
