<svg width="72" height="19" viewBox="0 0 72 19" fill="none" xmlns="http://www.w3.org/2000/svg">
<path d="M13.1576 0.83125L12.644 4.09687L6.52989 4.04938L5.88179 8.46688L11.1155 8.39563L10.6753 11.8512L5.39266 11.7681L4.3288 19H0L2.67799 0.83125H13.1576Z" fill="black"/>
<path d="M19.3207 6.42438L17.5231 19H13.1576L14.9307 6.42438H19.3207ZM15.591 2.4225C15.591 1.98708 15.697 1.58333 15.909 1.21125C16.1291 0.839167 16.4348 0.54625 16.8261 0.3325C17.2174 0.110833 17.6617 0 18.159 0C18.5829 0 18.9579 0.0870833 19.284 0.26125C19.6101 0.435417 19.8628 0.668958 20.0421 0.961875C20.2296 1.25479 20.3234 1.57542 20.3234 1.92375C20.3234 2.38292 20.2215 2.79854 20.0177 3.17062C19.8139 3.53479 19.5122 3.82771 19.1128 4.04938C18.7133 4.26312 18.2283 4.37 17.6576 4.37C17.2989 4.37 16.9606 4.28292 16.6427 4.10875C16.3247 3.93458 16.0679 3.70104 15.8723 3.40812C15.6848 3.10729 15.591 2.77875 15.591 2.4225Z" fill="black"/>
<path d="M27.7582 0.83125L32.1114 10.2362L33.0774 13.3237L33.2364 10.2362L34.4226 0.83125H38.6046L35.9266 19H32.2948L28.0394 9.10812L26.8288 5.8425L26.8655 9.10812L25.4592 19H21.3261L24.0041 0.83125H27.7582Z" fill="black"/>
<path d="M46.1005 0.83125L50.4538 10.2362L51.4198 13.3237L51.5788 10.2362L52.7649 0.83125H56.947L54.269 19H50.6372L46.3818 9.10812L45.1712 5.8425L45.2079 9.10812L43.8016 19H39.6685L42.3465 0.83125H46.1005Z" fill="black"/>
<path d="M63.9171 11.1506L62.4008 11.2337H59.356L59.784 8.11063H62.8288L64.2595 8.24125L64.3696 6.59062L64.7364 3.2775H68.0625L67.7446 6.59062L67.4389 8.22937L68.6372 8.11063H72L71.572 11.2337H68.2215L67.0353 11.1506L66.962 12.7537L66.5462 16.0312H63.2079L63.6114 12.7537L63.9171 11.1506Z" fill="black"/>
</svg>
