<svg width="36" height="36" viewBox="0 0 36 36" fill="none" xmlns="http://www.w3.org/2000/svg">
<g id="stop_screen_share_24px">
<path id="icon/communication/stop_screen_share_24px" fill-rule="evenodd" clip-rule="evenodd" d="M2.715 3.20975C3.3 2.62475 4.26 2.62475 4.845 3.20975L32.31 30.6747C32.895 31.2597 32.895 32.2047 32.31 32.7897C31.725 33.3747 30.78 33.3747 30.195 32.7897L27.195 29.7897H1.5C0.675 29.7897 0 29.1147 0 28.2897C0 27.4647 0.675 26.7897 1.5 26.7897H5.97C4.335 26.7747 3.015 25.4397 3.015 23.8047L3 23.7897C3 23.7897 3 10.1697 2.985 8.81975C2.985 7.46975 3.975 6.61475 3.975 6.61475L2.715 5.32475C2.13 4.73975 2.13 3.79475 2.715 3.20975ZM32.6997 26.7898H34.4997C35.3247 26.7898 35.9997 27.4648 35.9997 28.2898C35.9997 28.7848 35.7447 29.2048 35.3847 29.4748L32.6997 26.7898ZM10.5 22.2897C10.965 20.0697 11.91 17.8947 13.62 16.2147L16.005 18.5997C13.695 19.1697 11.94 20.3547 10.5 22.2897ZM19.4997 12.0148V13.4848C19.4697 13.4848 19.4397 13.4998 19.4097 13.5148L11.6997 5.81982H30.0297C31.6647 5.81982 32.9997 7.15482 32.9997 8.78982V23.7898C32.9997 24.7048 32.5947 25.4998 31.9497 26.0548L23.5797 17.6848L24.9147 16.4398C25.2297 16.1398 25.2297 15.6448 24.9147 15.3448L22.4997 13.0948L20.7597 11.4598C20.2797 11.0248 19.4997 11.3548 19.4997 12.0148Z" fill="#021E72"/>
</g>
</svg>
